<svg 
 xmlns="http://www.w3.org/2000/svg"
 xmlns:xlink="http://www.w3.org/1999/xlink"
 width="16px" height="14px">
<path fill-rule="evenodd"  fill="rgb(247, 247, 247)"
 d="M15.021,7.1000 L3.341,7.1000 L7.495,12.241 C7.704,12.425 7.837,12.696 7.837,12.1000 C7.837,13.552 7.398,13.999 6.857,13.999 C6.594,13.999 6.355,13.893 6.180,13.721 L6.177,13.724 L0.300,7.724 L0.300,7.724 C0.115,7.542 -0.000,7.287 -0.000,7.004 C-0.000,7.003 0.000,7.002 0.000,7.002 C0.000,7.001 -0.000,7.000 -0.000,6.999 C-0.000,6.717 0.115,6.462 0.300,6.280 L0.300,6.280 L6.177,0.280 L6.177,0.280 C6.353,0.107 6.593,-0.001 6.857,-0.001 C7.398,-0.001 7.837,0.447 7.837,0.999 C7.837,1.269 7.732,1.514 7.562,1.694 L7.562,1.694 L3.344,5.1000 L15.021,5.1000 C15.561,5.1000 16.000,6.447 16.000,6.1000 C16.000,7.552 15.561,7.1000 15.021,7.1000 Z"/>
</svg>