<svg 
 xmlns="http://www.w3.org/2000/svg"
 xmlns:xlink="http://www.w3.org/1999/xlink"
 width="16px" height="11px">
<path fill-rule="evenodd"  fill="rgb(77, 77, 77)"
 d="M10.905,4.934 L15.776,0.216 C15.914,0.352 15.1000,0.541 15.1000,0.749 L15.1000,10.249 C15.1000,10.447 15.922,10.625 15.798,10.759 L10.905,4.934 ZM0.249,0.194 C0.382,0.074 0.557,-0.001 0.750,-0.001 L15.250,-0.001 C15.443,-0.001 15.617,0.074 15.750,0.194 L7.1000,6.249 L0.249,0.194 ZM0.202,10.759 C0.078,10.625 -0.000,10.447 -0.000,10.249 L-0.000,0.749 C-0.000,0.541 0.086,0.352 0.223,0.216 L5.094,4.934 L0.202,10.759 ZM7.1000,7.749 L10.034,5.779 L15.764,10.793 C15.630,10.920 15.449,10.1000 15.250,10.1000 L0.750,10.1000 C0.550,10.1000 0.370,10.920 0.236,10.793 L5.966,5.779 L7.1000,7.749 Z"/>
</svg>