<svg 
 xmlns="http://www.w3.org/2000/svg"
 xmlns:xlink="http://www.w3.org/1999/xlink"
 width="30px" height="30px">
<path fill-rule="evenodd"  fill="rgb(0, 176, 255)"
 d="M23.834,0.599 L6.166,0.599 C3.096,0.599 0.600,3.095 0.600,6.164 L0.600,12.043 L0.600,23.834 C0.600,26.903 3.096,29.399 6.166,29.399 L23.834,29.399 C26.903,29.399 29.400,26.903 29.400,23.834 L29.400,12.043 L29.400,6.164 C29.400,3.095 26.903,0.599 23.834,0.599 ZM25.430,3.919 L26.067,3.916 L26.067,4.550 L26.067,8.797 L21.202,8.813 L21.185,3.932 L25.430,3.919 ZM10.890,12.043 C11.812,10.766 13.308,9.929 14.1000,9.929 C16.692,9.929 18.188,10.766 19.110,12.043 C19.710,12.876 20.069,13.895 20.069,14.999 C20.069,17.793 17.794,20.067 14.1000,20.067 C12.205,20.067 9.931,17.793 9.931,14.999 C9.931,13.895 10.290,12.876 10.890,12.043 ZM26.594,23.834 C26.594,25.356 25.356,26.593 23.834,26.593 L6.166,26.593 C4.644,26.593 3.406,25.356 3.406,23.834 L3.406,12.043 L7.705,12.043 C7.334,12.956 7.125,13.954 7.125,14.999 C7.125,19.340 10.657,22.874 14.1000,22.874 C19.342,22.874 22.874,19.340 22.874,14.999 C22.874,13.954 22.665,12.956 22.294,12.043 L26.594,12.043 L26.594,23.834 Z"/>
</svg>